<?xml version="1.0" encoding="utf-8"?>
<!-- Generator: Adobe Illustrator 24.0.0, SVG Export Plug-In . SVG Version: 6.00 Build 0)  -->
<svg version="1.1" id="drum-machine-all" xmlns="http://www.w3.org/2000/svg" xmlns:xlink="http://www.w3.org/1999/xlink" x="0px"
	 y="0px" viewBox="0 0 616.5 394.4" style="enable-background:new 0 0 616.5 394.4;" xml:space="preserve">
<style type="text/css">
	.st0{fill:#B0BCC5;}
	.st1{fill:#495867;}
	.st2{fill:#E7AD99;stroke:#495867;stroke-width:8;stroke-miterlimit:10;}
	.st3{fill:#FFFFFF;}
	.st4{fill:#90BF92;stroke:#495867;stroke-width:8;stroke-miterlimit:10;}
	.st5{fill:#EFDA84;}
	.st6{fill:#C6D4FF;stroke:#495867;stroke-width:8;stroke-miterlimit:10;}
	.st7{fill:#ECC8AF;stroke:#495867;stroke-width:8.118;stroke-miterlimit:10;}
	.st8{fill:#F2F2F2;stroke:#495867;stroke-width:8.118;stroke-miterlimit:10;}
	.st9{fill:#D3E2D7;stroke:#495867;stroke-width:8.118;stroke-miterlimit:10;}
	.st10{fill:#525B76;}
</style>
<ellipse id="shadow" class="st0" cx="308.2" cy="336" rx="308.2" ry="58.4"/>
<g id="drum-set">
	<path id="toms-stand" class="st1" d="M312.3,177L312.3,177c-2.2,0-4.1-1.8-4.1-4.1v-48.7c0-2.2,1.8-4.1,4.1-4.1l0,0
		c2.2,0,4.1,1.8,4.1,4.1v48.7C316.4,175.2,314.5,177,312.3,177z"/>
	<g id="tom-right-all">
		<path id="tom-right-stand" class="st1" d="M337.6,130.9c1.6-1.6,4.1-1.6,5.7,0l0,0c1.6,1.6,1.6,4.1,0,5.7L315.9,164v-11.5
			L337.6,130.9z"/>
		<g id="tom-right">
			<path class="st2" d="M346.7,160.7l90,0.5c3.4,0,6.2-2.8,6.3-6.2l0.2-38c0-3.4-2.8-6.2-6.2-6.3l-90-0.5c-3.4,0-6.2,2.8-6.3,6.2
				l-0.2,38C340.5,157.9,343.3,160.7,346.7,160.7z"/>
			<path class="st3" d="M431.3,122.8L431.3,122.8c0-2.2-1.8-4.1-4-4.1l-30.4-0.2c-2.2,0-4.1,1.8-4.1,4l0,0c0,2.2,1.8,4.1,4,4.1
				l30.4,0.2C429.5,126.9,431.3,125.1,431.3,122.8z"/>
			<path class="st3" d="M388.8,122.6L388.8,122.6c0-2.2-1.8-4.1-4-4.1l0,0c-2.2,0-4.1,1.8-4.1,4l0,0c0,2.2,1.8,4.1,4,4.1l0,0
				C386.9,126.6,388.8,124.8,388.8,122.6z"/>
		</g>
	</g>
	<g id="tom-left-all">
		<path id="tom-left-stand" class="st1" d="M287,130.9c-1.6-1.6-4.1-1.6-5.7,0l0,0c-1.6,1.6-1.6,4.1,0,5.7l27.8,27.8v-11.5
			L287,130.9z"/>
		<g id="tom-left">
			<path class="st2" d="M187.6,160.7l90,0.5c3.4,0,6.2-2.8,6.3-6.2l0.2-38c0-3.4-2.8-6.2-6.2-6.3l-90-0.5c-3.4,0-6.2,2.8-6.3,6.2
				l-0.2,38C181.4,157.9,184.2,160.7,187.6,160.7z"/>
			<path class="st3" d="M272.2,122.8L272.2,122.8c0-2.2-1.8-4.1-4-4.1l-52.1-0.3c-2.2,0-4.1,1.8-4.1,4l0,0c0,2.2,1.8,4.1,4,4.1
				l52.1,0.3C270.4,126.9,272.2,125.1,272.2,122.8z"/>
		</g>
	</g>
	<g id="floor-tom-all">
		<g id="floor-tom-stand">
			<path class="st1" d="M158.1,301.9L158.1,301.9c2.2,0,4.1,1.8,4.1,4.1v28c0,2.2-1.8,4.1-4.1,4.1l0,0c-2.2,0-4.1-1.8-4.1-4.1v-28
				C154,303.7,155.8,301.9,158.1,301.9z"/>
			<path class="st1" d="M160.9,302.9L160.9,302.9c1.6,1.6,1.6,4.1,0,5.7l-28.2,28.2c-1.6,1.6-4.1,1.6-5.7,0l0,0
				c-1.6-1.6-1.6-4.1,0-5.7l28.2-28.2C156.8,301.3,159.3,301.3,160.9,302.9z"/>
			<path class="st1" d="M155.2,302.9L155.2,302.9c-1.6,1.6-1.6,4.1,0,5.7l28.2,28.2c1.6,1.6,4.1,1.6,5.7,0l0,0
				c1.6-1.6,1.6-4.1,0-5.7l-28.2-28.2C159.3,301.3,156.8,301.3,155.2,302.9z"/>
		</g>
		<g id="floor-tom">
			<path class="st4" d="M215.1,305.6H107c-3.4,0-6.2-2.8-6.2-6.2V191.3c0-3.4,2.8-6.2,6.2-6.2h108.1c3.4,0,6.2,2.8,6.2,6.2v108.1
				C221.4,302.9,218.6,305.6,215.1,305.6z"/>
			<path class="st3" d="M114.5,205.4L114.5,205.4c0-2.2,1.8-4.1,4.1-4.1h61.8c2.2,0,4.1,1.8,4.1,4.1l0,0c0,2.2-1.8,4.1-4.1,4.1
				h-61.8C116.3,209.4,114.5,207.6,114.5,205.4z"/>
			<path class="st3" d="M143.5,243.5L143.5,243.5c0-2.2,1.8-4.1,4.1-4.1h53.1c2.2,0,4.1,1.8,4.1,4.1l0,0c0,2.2-1.8,4.1-4.1,4.1
				h-53.1C145.3,247.6,143.5,245.8,143.5,243.5z"/>
			<path class="st3" d="M132.7,277.7L132.7,277.7c0-2.2,1.8-4.1,4.1-4.1h22.8c2.2,0,4.1,1.8,4.1,4.1l0,0c0,2.2-1.8,4.1-4.1,4.1
				h-22.8C134.5,281.7,132.7,279.9,132.7,277.7z"/>
		</g>
	</g>
	<g id="hi-hat-all">
		<g id="hi-hat-stand">
			<path class="st1" d="M69.6,60c0-1.2,1.8-2.1,4.1-2.1s4.1,1,4.1,2.1v21.3h-8.1C69.6,81.3,69.6,60,69.6,60z"/>
			<path class="st1" d="M107.2,330.8l-29.7-29.7V97.8h-8.1V121h-9.6c-2.2,0-4.1,1.8-4.1,4.1s1.8,4.1,4.1,4.1h9.6v172l-29.7,29.7
				c-1.6,1.6-1.6,4.1,0,5.7s4.2,1.6,5.7,0l23.9-23.9v21.3c0,2.2,1.8,4.1,4.1,4.1s4.1-1.8,4.1-4.1v-21.3l23.9,23.9
				c1.6,1.6,4.2,1.6,5.7,0C108.7,335,108.7,332.4,107.2,330.8z"/>
		</g>
		<g id="hi-hat">
			<path class="st5" d="M116.2,89.7H77.5h-8.1H31.1c-2.2,0-4.1,1.8-4.1,4.1s1.8,4.1,4.1,4.1h38.2h8.1h38.7c2.2,0,4.1-1.8,4.1-4.1
				C120.2,91.5,118.4,89.7,116.2,89.7z"/>
			<path class="st5" d="M116.2,81.5c2.2,0,4.1-1.8,4.1-4.1s-1.8-4.1-4.1-4.1H77.5h-8.1H31.1c-2.2,0-4.1,1.8-4.1,4.1s1.8,4.1,4.1,4.1
				h38.2h8.1H116.2z"/>
		</g>
	</g>
	<g id="crash-all">
		<path id="crash-stand" class="st1" d="M571,330.8l-29.7-29.7V112.9h9.7c2.2,0,4.1-1.8,4.1-4.1s-1.8-4.1-4.1-4.1h-9.7V87.3l0,0V60
			c0-1.2-1.8-2.1-4.1-2.1s-4.1,1-4.1,2.1v21.5l0,0v219.6l-29.7,29.7c-1.6,1.6-1.6,4.1,0,5.7s4.1,1.6,5.7,0l23.9-23.9v21.3
			c0,2.2,1.8,4.1,4.1,4.1s4.1-1.8,4.1-4.1v-21.3l23.9,23.9c1.6,1.6,4.2,1.6,5.7,0C572.5,335,572.5,332.4,571,330.8z"/>
		<path id="crash" class="st5" d="M485.9,73.4h46.7h9.8h46.2c2.7,0,4.9,1.8,4.9,4.1s-2.2,4.1-4.9,4.1h-46.2h-9.8h-46.7
			c-2.7,0-4.9-1.8-4.9-4.1C481,75.2,483.1,73.4,485.9,73.4z"/>
	</g>
	<g id="snare-all">
		<g id="snare-stand">
			<path class="st1" d="M456.8,231.6L456.8,231.6c2.2,0,4.1,1.8,4.1,4.1v98.2c0,2.2-1.8,4.1-4.1,4.1l0,0c-2.2,0-4.1-1.8-4.1-4.1
				v-98.2C452.8,233.4,454.6,231.6,456.8,231.6z"/>
			<path class="st1" d="M459.7,302.8L459.7,302.8c1.6,1.6,1.6,4.1,0,5.7l-28.2,28.2c-1.6,1.6-4.1,1.6-5.7,0l0,0
				c-1.6-1.6-1.6-4.1,0-5.7l28.2-28.2C455.5,301.2,458.1,301.2,459.7,302.8z"/>
			<path class="st1" d="M454,302.8L454,302.8c-1.6,1.6-1.6,4.1,0,5.7l28.2,28.2c1.6,1.6,4.1,1.6,5.7,0l0,0c1.6-1.6,1.6-4.1,0-5.7
				l-28.2-28.2C458.1,301.2,455.5,301.2,454,302.8z"/>
		</g>
		<g id="snare">
			<path class="st6" d="M411.7,235.5l90,0.5c3.4,0,6.2-2.8,6.3-6.2l0.2-38c0-3.4-2.8-6.2-6.2-6.3l-90-0.5c-3.4,0-6.2,2.8-6.3,6.2
				l-0.2,38C405.5,232.6,408.3,235.4,411.7,235.5z"/>
			<path class="st3" d="M461.6,201.4L461.6,201.4c0-2.2-1.8-4.1-4-4.1l-38.4-0.2c-2.2,0-4.1,1.8-4.1,4l0,0c0,2.2,1.8,4.1,4,4.1
				l38.4,0.2C459.8,205.5,461.6,203.7,461.6,201.4z"/>
			<path class="st3" d="M489.3,220.9L489.3,220.9c0-2.2-1.8-4.1-4-4.1l-41-0.2c-2.2,0-4.1,1.8-4.1,4l0,0c0,2.2,1.8,4.1,4,4.1l41,0.2
				C487.4,224.9,489.2,223.1,489.3,220.9z"/>
		</g>
	</g>
	<g id="kick-all">
		<g id="kick-stand">
			<path class="st1" d="M240.9,337L240.9,337c-1.6-1.6-1.6-4.1,0-5.7l17.9-17.9c1.6-1.6,4.1-1.6,5.7,0l0,0c1.6,1.6,1.6,4.1,0,5.7
				L246.7,337C245.1,338.6,242.5,338.6,240.9,337z"/>
			<path class="st1" d="M386.6,337L386.6,337c1.6-1.6,1.6-4.1,0-5.7l-17.9-17.9c-1.6-1.6-4.1-1.6-5.7,0l0,0c-1.6,1.6-1.6,4.1,0,5.7
				l17.9,17.9C382.4,338.6,385,338.6,386.6,337z"/>
		</g>
		<g id="kick">
			<circle class="st7" cx="312.3" cy="253.7" r="78"/>
			<circle class="st8" cx="312.3" cy="253.7" r="62.2"/>
			<circle class="st9" cx="312.3" cy="253.7" r="62.2"/>
			<path class="st3" d="M274.1,284.9c-1.6,0-3.2-0.8-4.2-2.2c-6.1-8.6-9.3-18.8-9.3-29.4c0-28.2,22.9-51.1,51.1-51.1
				c6.7,0,13.3,1.3,19.5,3.8c2.6,1.1,3.9,4.1,2.8,6.7s-4.1,3.9-6.7,2.8c-4.9-2-10.1-3.1-15.5-3.1c-22.5,0-40.7,18.3-40.7,40.7
				c0,8.4,2.6,16.5,7.4,23.4c1.6,2.3,1.1,5.5-1.3,7.2C276.1,284.5,275.1,284.9,274.1,284.9z"/>
		</g>
	</g>
</g>
<g id="buttons">
	<g id="buttons-top">
		<path class="st10" d="M249.1,49.3h-32.7c-2.4,0-4.3,1.9-4.3,4.3v32.7c0,2.4,1.9,4.3,4.3,4.3h32.7c2.4,0,4.3-1.9,4.3-4.3V53.6
			C253.4,51.2,251.5,49.3,249.1,49.3z M241.5,79.3c-2.2,1.2-4.6,1.8-7.2,1.8c-3.1,0-5.6-1-7.5-3c-1.9-2-2.9-4.6-2.9-7.9
			c0-3.3,1.1-6.1,3.2-8.2c2.1-2.1,4.8-3.2,8-3.2c2.4,0,4.3,0.4,5.9,1.2v2.8c-1.8-1.1-3.8-1.7-6.2-1.7c-2.4,0-4.4,0.8-5.9,2.5
			c-1.6,1.7-2.3,3.8-2.3,6.5c0,2.7,0.7,4.9,2.2,6.4c1.4,1.6,3.4,2.3,5.9,2.3c1.7,0,3.1-0.3,4.4-1v-6h-4.7v-2.3h7.3L241.5,79.3
			L241.5,79.3z"/>
		<path class="st10" d="M408.2,50.1h-32.7c-2.4,0-4.3,1.9-4.3,4.3v32.7c0,2.4,1.9,4.3,4.3,4.3h32.7c2.4,0,4.3-1.9,4.3-4.3V54.4
			C412.5,52,410.6,50.1,408.2,50.1z M400,81.6h-2.5v-9.9h-11.2v9.9h-2.5V60h2.5v9.5h11.2V60h2.5V81.6z"/>
		<path class="st10" d="M553.6,0h-32.7c-2.4,0-4.3,1.9-4.3,4.3v32.7c0,2.4,1.9,4.3,4.3,4.3h32.7c2.4,0,4.3-1.9,4.3-4.3V4.3
			C557.9,1.9,556,0,553.6,0z M541.2,23.6c0,2.6-0.5,4.6-1.6,6c-1.1,1.4-2.5,2.1-4.4,2.1c-0.8,0-1.5-0.1-2.1-0.4v-2.5
			c0.5,0.4,1.3,0.6,2.1,0.6c2.3,0,3.4-1.9,3.4-5.8V9.7h2.5L541.2,23.6L541.2,23.6z"/>
		<path class="st10" d="M89.8,0H57c-2.4,0-4.3,1.9-4.3,4.3v32.7c0,2.4,1.9,4.3,4.3,4.3h32.7c2.4,0,4.3-1.9,4.3-4.3V4.3
			C94.1,1.9,92.2,0,89.8,0z M78.9,12.2h-8.4v7.5h7.8v2.3h-7.8v9.6h-2.5V9.9h11V12.2z"/>
	</g>
	<g id="bottons-bottom">
		<g>
			<path class="st10" d="M311.1,374.4h-2.9v7.8h3.4c1.5,0,2.6-0.4,3.5-1c0.8-0.7,1.2-1.7,1.2-2.9
				C316.3,375.7,314.6,374.4,311.1,374.4z"/>
			<path class="st10" d="M314,371.1c0.8-0.7,1.2-1.6,1.2-2.8c0-2.1-1.4-3.1-4.1-3.1h-2.9v7h2.6C312.1,372.1,313.2,371.8,314,371.1z"
				/>
			<path class="st10" d="M328.7,353h-32.7c-2.4,0-4.3,1.9-4.3,4.3V390c0,2.4,1.9,4.3,4.3,4.3h32.7c2.4,0,4.3-1.9,4.3-4.3v-32.7
				C333,354.9,331,353,328.7,353z M317,382.8c-1.3,1.1-3,1.7-5,1.7h-6.3v-21.6h6.1c1.9,0,3.4,0.5,4.5,1.4c1.1,0.9,1.6,2.1,1.6,3.6
				c0,1.2-0.3,2.3-1,3.2s-1.6,1.5-2.7,1.9v0.1c1.5,0.2,2.6,0.7,3.5,1.6c0.9,0.9,1.3,2.1,1.3,3.6C319,380.1,318.3,381.6,317,382.8z"
				/>
		</g>
		<path class="st10" d="M473.2,353.7h-32.7c-2.4,0-4.3,1.9-4.3,4.3v32.7c0,2.4,1.9,4.3,4.3,4.3h32.7c2.4,0,4.3-1.9,4.3-4.3V358
			C477.5,355.7,475.6,353.7,473.2,353.7z M465.1,384.7h-3l-10.6-16.4c-0.3-0.4-0.5-0.8-0.7-1.3h-0.1c0.1,0.4,0.1,1.4,0.1,2.8v14.8
			h-2.4v-20.5h3.1l10.3,16.1c0.4,0.7,0.7,1.1,0.8,1.4h0.1c-0.1-0.6-0.1-1.6-0.1-3v-14.5h2.4L465.1,384.7L465.1,384.7z"/>
		<path class="st10" d="M174.4,353h-32.7c-2.4,0-4.3,1.9-4.3,4.3V390c0,2.4,1.9,4.3,4.3,4.3h32.7c2.4,0,4.3-1.9,4.3-4.3v-32.7
			C178.8,354.9,176.8,353,174.4,353z M159.5,384.2h-3.3l-7.9-21h3.7l5.3,15.2c0.4,1.1,0.6,2.1,0.7,2.9h0.1c0.1-1,0.4-2,0.6-2.8
			l5.6-15.3h3.5L159.5,384.2z"/>
	</g>
</g>
</svg>
